<svg height="256" width="949" xmlns="http://www.w3.org/2000/svg"><path d="m110.85125168 128 110.85125169 64-110.85125169 64-110.85125168-64z" fill="#2366d1"/><path d="m110.85125168 64 110.85125169 64-110.85125169 64-110.85125168-64z" fill="#609dff"/><path d="m110.85125168 0 110.85125169 64-110.85125169 64-110.85125168-64z" fill="#a4c7ff"/><path d="m613.888 10.24v126.976a60.705 60.705 0 0 0 .066 2.839q.599 12.792 6.648 23.261a50.135 50.135 0 0 0 1.094 1.804 51.598 51.598 0 0 0 2.866 4.065q6.795 8.712 17.2 14.264a63.11 63.11 0 0 0 1.694.871 61.649 61.649 0 0 0 4.913 2.172q11.098 4.341 24.477 4.706a90.809 90.809 0 0 0 2.482.034 90.563 90.563 0 0 0 2.776-.042q14.676-.45 26.596-5.701a61.259 61.259 0 0 0 2.5-1.169q13.952-6.912 21.888-19.2a49.502 49.502 0 0 0 2.234-3.821q5.308-10.096 5.675-22.263a60.335 60.335 0 0 0 .027-1.82v-126.976a10.857 10.857 0 0 1 .038-.925q.251-2.931 2.138-4.707a7.256 7.256 0 0 1 2.725-1.627q1.271-.421 2.779-.421 2.252 0 3.898.809a6.472 6.472 0 0 1 1.734 1.239q1.831 1.831 2.025 4.891a11.729 11.729 0 0 1 .023.741v126.976q0 19.591-9.249 34.978a64.077 64.077 0 0 1 -.607.99q-9.856 15.744-27.392 24.576-16.224 8.171-36.501 8.783a109.71 109.71 0 0 1 -3.307.049q-22.272 0-39.808-8.832a77.835 77.835 0 0 1 -2.692-1.422q-13.865-7.677-22.491-19.992a65.778 65.778 0 0 1 -2.081-3.162q-9.728-15.744-9.728-35.968v-126.976a10.857 10.857 0 0 1 .038-.925q.251-2.931 2.138-4.707a7.256 7.256 0 0 1 2.725-1.627q1.271-.421 2.779-.421 2.252 0 3.898.809a6.472 6.472 0 0 1 1.734 1.239q1.831 1.831 2.025 4.891a11.729 11.729 0 0 1 .023.741zm281.6-1.28a69.507 69.507 0 0 0 -.608-.345q-15.371-8.615-33.696-8.615a100.005 100.005 0 0 0 -2.394.028q-16.448.394-29.222 6.244a61.75 61.75 0 0 0 -1.49.707q-12.622 6.193-19.758 16.957-7.552 11.392-7.552 26.24 0 19.521 14.407 33.483a59.222 59.222 0 0 0 1.849 1.717 60.63 60.63 0 0 0 2.656 2.23q15.047 11.92 39.379 15.923a133.91 133.91 0 0 0 2.637.407q22.42 3.068 34.723 12.989a41.61 41.61 0 0 1 2.013 1.731 43.592 43.592 0 0 1 .848.799q11.568 11.198 11.568 28.001 0 20.224-12.672 31.232a39.281 39.281 0 0 1 -4.456 3.346q-11.198 7.232-28.189 7.638a85.481 85.481 0 0 1 -2.043.024 102.18 102.18 0 0 1 -2.188-.023q-15.733-.337-27.646-5.561a55.097 55.097 0 0 1 -3.062-1.456 56.619 56.619 0 0 1 -1.526-.814q-10.792-5.971-17.126-15.728a47.528 47.528 0 0 1 -1.956-3.298 12.115 12.115 0 0 0 -.176-.356q-2.074-4.032-6.237-4.458a9.942 9.942 0 0 0 -1.011-.05 12.194 12.194 0 0 0 -.343.005q-3.346.094-5.417 2.043a7.449 7.449 0 0 0 -.681.731q-1.185 1.46-1.431 3.363a8.003 8.003 0 0 0 -.064 1.026 6.218 6.218 0 0 0 .084 1.017q.095.571.296 1.143a7.895 7.895 0 0 0 .388.912 65.044 65.044 0 0 0 .707 1.354q7.992 14.873 22.956 24.069a74.4 74.4 0 0 0 2.705 1.585q17.664 9.856 41.728 9.856 16.06 0 28.811-5.105a62.036 62.036 0 0 0 4.085-1.807q14.208-6.912 22.016-19.968a51.186 51.186 0 0 0 2.133-3.951q5.675-11.71 5.675-26.769a72.811 72.811 0 0 0 -.03-2.102q-.586-20.293-12.589-33.599a49.8 49.8 0 0 0 -2.229-2.315q-14.848-14.464-47.104-19.84a157.882 157.882 0 0 1 -1.81-.312q-23.204-4.146-34.542-13.512a41.218 41.218 0 0 1 -.927-.789q-10.849-9.515-10.849-23.275a49.293 49.293 0 0 1 0-.134q.047-17.056 11.904-26.618a35.234 35.234 0 0 1 .859-.671q11.227-8.495 30.322-8.908a91.194 91.194 0 0 1 1.971-.021 73.044 73.044 0 0 1 .853.005q26.71.312 41.477 20.228a59.37 59.37 0 0 1 1.446 2.039q2.26 3.39 6.116 3.787a10.261 10.261 0 0 0 1.052.053 14.543 14.543 0 0 0 .615-.013q1.593-.067 2.457-.499a10.655 10.655 0 0 0 .136-.069q1.012-.525 1.799-1.21a7.607 7.607 0 0 0 1.265-1.409q.797-1.15 1.042-2.485a6.761 6.761 0 0 0 .11-1.227q0-2.304-1.024-4.096-7.424-12.544-23.04-21.504zm-735.177-8.892a110.648 110.648 0 0 0 -3.895-.068q-24.851 0-46.014 11.483a99.343 99.343 0 0 0 -4.29 2.469 109.009 109.009 0 0 0 -1.569.974q-19.866 12.563-32.403 32.553a111.393 111.393 0 0 0 -2.38 3.977q-13.44 23.552-13.44 50.944 0 24.931 11.24 46.787a107.592 107.592 0 0 0 2.328 4.285q13.568 23.68 36.608 37.632a103.444 103.444 0 0 0 1.586.941q22.377 13.011 48.334 13.011 40.96 0 62.976-22.016 1.526-1.744 1.753-4.416a11.364 11.364 0 0 0 .039-.96q0-2.758-1.67-4.812a8.614 8.614 0 0 0 -.762-.82 10.501 10.501 0 0 0 -.114-.107q-2.39-2.197-5.39-2.197a6.244 6.244 0 0 0 -1.699.233q-.643.18-1.258.502a7.508 7.508 0 0 0 -.883.545q-22.784 18.688-52.992 18.688-20.651 0-38.673-9.674a87.237 87.237 0 0 1 -3.695-2.102q-19.584-11.776-30.976-31.872-10.368-18.29-11.3-39.444a95.549 95.549 0 0 1 -.092-4.204q0-22.784 11.52-42.88a97.348 97.348 0 0 1 .15-.26q11.497-19.914 30.954-31.868a88.056 88.056 0 0 1 2.851-1.679q16.508-9.307 35.063-10.247a82.911 82.911 0 0 1 4.198-.106 117.212 117.212 0 0 1 .401.001q23.367.08 40.012 9.487a63.01 63.01 0 0 1 11.043 7.92 23.034 23.034 0 0 0 .467.39q3.302 2.682 5.933 2.682a9.974 9.974 0 0 0 .639-.02q2.432-.156 4.098-1.524a6.873 6.873 0 0 0 .895-.888 9.994 9.994 0 0 0 .229-.282q1.819-2.327 1.819-5.222a8.988 8.988 0 0 0 -.023-.645q-.205-2.861-2.281-4.475a110.881 110.881 0 0 0 -.105-.087q-25.857-21.453-59.232-22.629zm390.857 198.332-47.104-75.264h-4.608-41.216v71.68q0 3.328-2.048 5.504-1.96 2.083-5.327 2.172a11.487 11.487 0 0 1 -.305.004q-3.108 0-5.211-1.898a7.871 7.871 0 0 1 -.293-.278 7.525 7.525 0 0 1 -.874-1.045q-1.293-1.872-1.302-4.425a10.179 10.179 0 0 1 0-.034v-184.576a10.857 10.857 0 0 1 .038-.925q.251-2.931 2.138-4.707a7.256 7.256 0 0 1 2.725-1.627q1.271-.421 2.779-.421h48.896q18.432 0 33.024 7.68 13.474 7.092 21.491 19.422a58.968 58.968 0 0 1 1.293 2.082 56.737 56.737 0 0 1 5.15 11.386q3.042 9.338 3.042 20.102 0 18.968-9.51 33.233a56.692 56.692 0 0 1 -2.138 2.991 58.849 58.849 0 0 1 -2.596 3.162q-10.591 12.019-26.959 17.161a72.195 72.195 0 0 1 -1.805.541l44.032 70.4q2.048 3.584 2.048 5.888a6.599 6.599 0 0 1 -.05.828q-.225 1.772-1.443 2.959a5.625 5.625 0 0 1 -.683.565 6.473 6.473 0 0 1 -.805.483q-2.075 1.053-5.467 1.053-2.329 0-3.81-.847a4.911 4.911 0 0 1 -.286-.177q-1.33-.887-2.469-2.542a14.447 14.447 0 0 1 -.347-.53zm-152.064-.768-18.944-45.312h-104.192l-18.944 45.312q-1.7 4.616-6.628 4.851a11.297 11.297 0 0 1 -.54.013 10.258 10.258 0 0 1 -.925-.041q-2.788-.252-4.531-2.072a6.997 6.997 0 0 1 -.176-.191 8.678 8.678 0 0 1 -.747-.968q-1.301-1.96-1.301-4.408a7.805 7.805 0 0 1 .106-1.295 7.181 7.181 0 0 1 .662-2.033l77.568-183.552a12.196 12.196 0 0 1 .34-.807q1.953-4.193 6.288-4.538a10.038 10.038 0 0 1 .796-.031 9.004 9.004 0 0 1 1.011.055q4.343.491 6.413 5.321l77.824 183.552q.768 1.536.768 3.328a7.64 7.64 0 0 1 -.106 1.285q-.389 2.282-2.198 4.091a9.044 9.044 0 0 1 -.777.694q-1.788 1.417-3.992 1.587a7.908 7.908 0 0 1 -.607.023 9.93 9.93 0 0 1 -.933-.043q-4.379-.413-6.235-4.821zm-383.744-187.392v184.576q0 3.108-1.898 5.211a7.871 7.871 0 0 1 -.278.293 7.525 7.525 0 0 1 -1.045.874q-1.872 1.293-4.425 1.302a10.179 10.179 0 0 1 -.034 0q-3.108 0-5.211-1.898a7.871 7.871 0 0 1 -.293-.278 7.525 7.525 0 0 1 -.874-1.045q-1.293-1.872-1.302-4.425a10.179 10.179 0 0 1 0-.034v-184.576q0-3.108 1.898-5.211a7.871 7.871 0 0 1 .278-.293 7.525 7.525 0 0 1 1.045-.874q1.872-1.293 4.425-1.302a10.179 10.179 0 0 1 .034 0q3.108 0 5.211 1.898a7.871 7.871 0 0 1 .293.278 7.525 7.525 0 0 1 .874 1.045q1.293 1.872 1.302 4.425a10.179 10.179 0 0 1 0 .034zm266.496 128.256h92.416l-46.336-110.592zm176.384-30.72h41.216q10.962 0 20.063-3.414a48.175 48.175 0 0 0 5.025-2.218 47.471 47.471 0 0 0 2.515-1.383q7.691-4.542 12.819-11.578a43.678 43.678 0 0 0 1.946-2.911q5.612-9.163 6.203-20.376a50.673 50.673 0 0 0 .069-2.664q0-13.056-6.272-23.424-6.272-10.368-17.28-16.128-11.008-5.76-25.088-5.76h-41.216z" fill="#333" transform="matrix(.7 0 0 .7 300 55.695)"/></svg>